HIERARCHY
ROOT SpineBase
{
  OFFSET 0.000000 0.000000 0.000000
  CHANNELS 6 Xposition Yposition Zposition Zrotation Xrotation Yrotation
  JOINT SpineMid
  {
    OFFSET -0.000000 30.935144 0.000000
    CHANNELS 3 Zrotation Xrotation Yrotation
    JOINT SpineShoulder
    {
      OFFSET -0.236863 22.960027 -0.856940
      CHANNELS 3 Zrotation Xrotation Yrotation
      JOINT Neck
      {
        OFFSET -0.127052 7.567677 -0.520489
        CHANNELS 3 Zrotation Xrotation Yrotation
        JOINT Head
        {
          OFFSET -3.396755 13.956535 0.032235
          CHANNELS 3 Zrotation Xrotation Yrotation
          End Site
          {
            OFFSET 0 0 0
          }
        }
      }
      JOINT ShoulderLeft
      {
        OFFSET -15.880610 -5.326949 9.238518
        CHANNELS 3 Zrotation Xrotation Yrotation
        JOINT ElbowLeft
        {
          OFFSET -1.364638 -26.468221 0.131103
          CHANNELS 3 Zrotation Xrotation Yrotation
          JOINT WristLeft
          {
            OFFSET 0.449445 -26.313472 -0.955844
            CHANNELS 3 Zrotation Xrotation Yrotation
            JOINT HandLeft
            {
              OFFSET -0.215573 -4.171263 1.076187
              CHANNELS 3 Zrotation Xrotation Yrotation
              JOINT HandTipLeft
              {
                OFFSET 1.015778 -6.504658 1.051150
                CHANNELS 3 Zrotation Xrotation Yrotation
                End Site
                {
                  OFFSET 0 0 0
                }
              }
              JOINT ThumbLeft
              {
                OFFSET -2.031350 -2.441778 -0.141411
                CHANNELS 3 Zrotation Xrotation Yrotation
                End Site
                {
                  OFFSET 0 0 0
                }
              }
            }
          }
        }
      }
      JOINT ShoulderRight
      {
        OFFSET 13.129083 -3.879716 -8.566253
        CHANNELS 3 Zrotation Xrotation Yrotation
        JOINT ElbowRight
        {
          OFFSET 3.366394 -25.254123 -2.853739
          CHANNELS 3 Zrotation Xrotation Yrotation
          JOINT WristRight
          {
            OFFSET 2.710565 -22.831442 -6.793901
            CHANNELS 3 Zrotation Xrotation Yrotation
            JOINT HandRight
            {
              OFFSET 0.128625 -6.626420 -2.075464
              CHANNELS 3 Zrotation Xrotation Yrotation
              JOINT HandTipRight
              {
                OFFSET 0.829224 -6.235479 -0.434684
                CHANNELS 3 Zrotation Xrotation Yrotation
                End Site
                {
                  OFFSET 0 0 0
                }
              }
              JOINT ThumbRight
              {
                OFFSET -1.676614 -2.979090 -0.586290
                CHANNELS 3 Zrotation Xrotation Yrotation
                End Site
                {
                  OFFSET 0 0 0
                }
              }
            }
          }
        }
      }
    }
  }
  JOINT HipLeft
  {
    OFFSET -6.870791 -0.571098 0.077361
    CHANNELS 3 Zrotation Xrotation Yrotation
    JOINT KneeLeft
    {
      OFFSET 3.285945 -34.885235 3.892657
      CHANNELS 3 Zrotation Xrotation Yrotation
      JOINT AnkleLeft
      {
        OFFSET 7.892650 -33.228480 8.152987
        CHANNELS 3 Zrotation Xrotation Yrotation
        JOINT FootLeft
        {
          OFFSET -5.600861 -4.913338 -11.459117
          CHANNELS 3 Zrotation Xrotation Yrotation
          End Site
          {
            OFFSET 0 0 0
          }
        }
      }
    }
  }
  JOINT HipRight
  {
    OFFSET 5.194165 0.927519 -6.629125
    CHANNELS 3 Zrotation Xrotation Yrotation
    JOINT KneeRight
    {
      OFFSET 7.944616 -32.639160 -1.602397
      CHANNELS 3 Zrotation Xrotation Yrotation
      JOINT AnkleRight
      {
        OFFSET 8.900551 -35.310139 9.915298
        CHANNELS 3 Zrotation Xrotation Yrotation
        JOINT FootRight
        {
          OFFSET -5.742843 -4.917275 -11.419882
          CHANNELS 3 Zrotation Xrotation Yrotation
          End Site
          {
            OFFSET 0 0 0
          }
        }
      }
    }
  }
}
MOTION
Frames: 6
Frame Time: 0.033333
104.459077 75.577646 411.553461 1.199361 -2.114847 34.792626 0.080826 0.408236 -34.751058 0.189401 -0.412416 0.028844 -0.005053 4.297088 0.426131 0.000000 0.000000 0.000000 -1.163698 -6.829588 0.441136 -4.008462 13.600099 0.545456 4.929625 21.171330 -1.392853 -3.364853 -9.328845 2.417982 0.000000 0.000000 0.000000 0.000000 0.000000 0.000000 10.530695 -1.879837 -1.903953 -13.936305 12.128838 3.996994 -4.776862 -2.667630 0.086660 4.624663 13.062100 1.016041 0.000000 0.000000 0.000000 0.000000 0.000000 0.000000 0.681321 1.400292 -34.737753 -2.289763 1.037755 -0.247290 -0.018986 -2.201086 5.455697 0.000000 0.000000 0.000000 0.221538 2.421021 -34.775169 -0.000000 0.000000 0.000000 -1.339458 -1.744351 5.237985 0.000000 0.000000 0.000000
104.510345 75.589564 411.512091 1.239433 -2.139060 35.141323 0.084451 0.421953 -35.097772 0.186319 -0.410940 0.029728 0.034764 4.337021 0.427406 0.000000 0.000000 0.000000 -1.057554 -5.827379 0.393113 -4.274826 12.255219 0.544908 7.098321 19.172514 -0.963880 -5.220050 -7.726345 1.398878 0.000000 0.000000 0.000000 0.000000 0.000000 0.000000 10.456397 -1.801006 -1.899960 -13.775298 11.251508 3.829361 -3.745634 -5.040506 -0.186104 5.052087 12.884347 0.571299 0.000000 0.000000 0.000000 0.000000 0.000000 0.000000 0.650860 1.641601 -35.085951 -2.116013 0.807209 -0.261770 -0.203684 -2.266032 5.975198 0.000000 0.000000 0.000000 0.217411 2.462483 -35.122856 0.123282 -0.850217 -0.178363 -1.598017 -1.044846 5.947769 0.000000 0.000000 0.000000
104.554184 75.600471 411.473187 1.259988 -2.166576 35.245090 0.088768 0.437025 -35.200544 0.181775 -0.407110 0.029898 0.221035 4.356682 0.417612 0.000000 0.000000 0.000000 -0.869191 -6.513157 0.438577 -4.517570 12.292757 0.549302 7.304263 16.688547 -0.718139 -4.218977 -6.979822 1.390618 0.000000 0.000000 0.000000 0.000000 0.000000 0.000000 10.458582 -1.751625 -1.902161 -13.740040 10.384772 3.703894 -2.623415 -7.133832 -0.432747 3.507544 10.599733 0.220532 0.000000 0.000000 0.000000 0.000000 0.000000 0.000000 0.220949 2.496412 -35.226078 -1.201970 0.298450 -0.221601 -0.161969 -2.055719 5.515451 0.000000 0.000000 0.000000 0.220949 2.496412 -35.226078 0.093394 -0.959459 -0.214299 -1.440114 -0.808952 5.524950 0.000000 0.000000 0.000000
104.593013 75.603978 411.415620 1.281944 -2.167203 34.716760 0.078314 0.454887 -34.671314 0.169739 -0.405460 0.029544 0.434551 4.288122 0.392383 0.000000 0.000000 0.000000 -0.548841 -9.884087 0.647683 -4.769069 14.708288 0.597662 6.543941 14.694549 -0.653322 -3.631360 -2.581332 1.874044 0.000000 0.000000 0.000000 0.000000 0.000000 0.000000 10.399924 -1.820396 -1.894536 -13.541875 9.598315 3.554648 -1.779313 -8.097589 -0.538336 2.521822 10.843899 0.306694 0.000000 0.000000 0.000000 0.000000 0.000000 0.000000 0.180194 2.511357 -34.696461 -1.077410 0.253966 -0.202212 0.232283 -1.524732 3.686742 0.000000 0.000000 0.000000 0.180194 2.511357 -34.696461 0.025158 -1.100151 -0.269274 -0.859110 -0.179657 3.764860 0.000000 0.000000 0.000000
104.634294 75.606580 411.352379 1.314760 -2.150963 33.825207 0.059947 0.468706 -33.778326 0.164678 -0.408182 0.029975 0.608004 4.148997 0.353534 0.000000 0.000000 0.000000 -0.064202 -12.700638 0.859184 -5.114771 16.579275 0.640995 5.112916 14.803518 -0.841882 -2.556640 -1.975627 2.290219 0.000000 0.000000 0.000000 0.000000 0.000000 0.000000 10.233012 -1.967822 -1.878830 -13.159548 8.834368 3.368130 -1.306508 -7.932494 -0.505997 2.034468 9.463940 0.199938 0.000000 0.000000 0.000000 0.000000 0.000000 0.000000 0.104735 2.518623 -33.802826 -0.931557 0.229619 -0.172584 0.544067 -1.087051 2.088450 0.000000 0.000000 0.000000 0.104735 2.518623 -33.802826 0.019657 -1.209610 -0.298290 -0.399393 0.343419 2.216752 0.000000 0.000000 0.000000
104.685178 75.597885 411.302734 1.353551 -2.133983 32.620646 0.032639 0.481464 -32.572073 0.162718 -0.411936 0.030602 0.804499 3.985511 0.307010 0.000000 0.000000 0.000000 0.612194 -14.533327 1.052609 -5.920035 17.538574 0.785276 4.251776 15.199932 -0.983957 -1.019803 -1.997452 2.772119 0.000000 0.000000 0.000000 0.000000 0.000000 0.000000 10.022516 -2.225000 -1.864308 -12.661528 8.205408 3.175871 -1.173976 -6.743139 -0.366544 2.700371 9.464632 0.182353 0.000000 0.000000 0.000000 0.000000 0.000000 0.000000 -0.013769 1.572576 -32.616567 -1.278232 1.091977 -0.088643 0.747204 -0.826615 0.854921 0.000000 0.000000 0.000000 0.009864 2.526864 -32.595653 0.001940 -1.288102 -0.323114 -1.044654 2.719172 1.037623 0.000000 0.000000 0.000000
